<svg width="28" height="21" viewBox="0 0 28 21" fill="none" xmlns="http://www.w3.org/2000/svg">
<path d="M12.672 13.168L15.232 10.608L17.152 12.528L18.368 13.936L18.496 13.904L18.368 11.344V10.928C18.368 10.0107 18.24 9.12533 17.984 8.272C17.728 7.39733 17.3227 6.62933 16.768 5.968C16.2133 5.30667 15.4987 4.784 14.624 4.4C13.7707 3.99467 12.7467 3.792 11.552 3.792C10.3573 3.83467 9.32267 4.05867 8.448 4.464C7.59467 4.86933 6.89067 5.40267 6.336 6.064C5.78133 6.704 5.376 7.45067 5.12 8.304C4.864 9.136 4.736 10.0107 4.736 10.928H0.832C0.832 9.47733 1.056 8.10133 1.504 6.8C1.952 5.47733 2.624 4.32533 3.52 3.344C4.416 2.36267 5.52533 1.584 6.848 1.008C8.192 0.431999 9.76 0.143999 11.552 0.143999C13.344 0.143999 14.9013 0.431999 16.224 1.008C17.568 1.584 18.688 2.36267 19.584 3.344C20.48 4.32533 21.152 5.47733 21.6 6.8C22.048 8.10133 22.272 9.47733 22.272 10.928V11.344L22.144 13.904L22.272 13.936L23.488 12.528L25.408 10.608L27.968 13.168L20.32 20.816L12.672 13.168Z" fill="#252525"/>
</svg>
