<svg width="24" height="25" viewBox="0 0 24 25" fill="none" xmlns="http://www.w3.org/2000/svg">
<path fill-rule="evenodd" clip-rule="evenodd" d="M20.256 0.0322266H3.744C1.632 0.0322266 0 1.66423 0 3.77623V20.3842C0 22.4002 1.632 24.0322 3.744 24.0322H12.864V14.7202H9.696V11.0722H12.768V8.48023C12.768 5.40823 14.688 3.68023 17.472 3.68023C18.816 3.68023 19.968 3.77623 20.256 3.77623V7.04023H18.336C16.8 7.04023 16.512 7.71223 16.512 8.76823V11.0722H20.16L19.68 14.7202H16.512V24.0322H20.256C22.272 24.0322 24 22.4002 24 20.2882V3.77623C24 1.66423 22.368 0.0322266 20.256 0.0322266Z" fill="white"/>
</svg>
