<svg width="37" height="24" viewBox="0 0 37 24" fill="none" xmlns="http://www.w3.org/2000/svg">
<path d="M18.503 0C18.503 0 6.91959 0 4.02373 0.705882C2.46911 1.10118 1.18883 2.28706 0.762069 3.75529C0 6.43765 0 12 0 12C0 12 0 17.5906 0.762069 20.2447C1.18883 21.7129 2.43862 22.8706 4.02373 23.2659C6.95007 24 18.503 24 18.503 24C18.503 24 30.0865 24 32.9824 23.2941C34.5675 22.8988 35.8173 21.7412 36.244 20.2729C37.0061 17.5906 37.0061 12.0282 37.0061 12.0282C37.0061 12.0282 37.0366 6.43765 36.244 3.75529C35.8173 2.28706 34.5675 1.12941 32.9824 0.734118C30.0865 0 18.503 0 18.503 0ZM14.8146 6.86118L24.4472 12L14.8146 17.1388V6.86118Z" fill="white"/>
</svg>
